<svg xmlns="http://www.w3.org/2000/svg" xmlns:svg="http://www.w3.org/2000/svg" id="Livello_1" x="0" y="0" version="1.1" viewBox="0 0 1222.91 841.89" xml:space="preserve" style="enable-background:new 0 0 1222.91 841.89"><metadata id="metadata83"/><style id="style2" type="text/css">.st0{fill:#fff}.st3{fill:#1d3e84}.st4{fill:#47509e}</style><g id="g915"><g id="g14"><path id="path4" d="M109.56,146.14v17.82h15.58v5.94h-19.59V140.2h19.59v5.94H109.56z"/><path id="path6" d="M149.04,140.03v18.11h-5.13l5.13,7.54v4.23h-2.92l-7.72-11.77h-5.09v11.77h-3.86v-29.88H149.04z M145.03,146.14h-11.72 v5.88h11.72V146.14z"/><path id="path8" d="M172.6,169.9h-19.59v-29.93h19.59V169.9z M168.74,145.91h-11.72v17.88h11.72V145.91z"/><path id="path10" d="M196.5,140.03v29.88h-2.77l-7.04-10.74l-7,10.74h-2.77v-29.88h4.01v19.77l5.77-9.03l5.96,9.03v-19.77H196.5z"/><path id="path12" d="M220.09,140.03v29.88h-3.86l-11.72-20.51v20.51h-3.86v-29.88h3.86l11.72,20.51v-20.51H220.09z"/></g><g id="g1032"><rect style="enable-background:new 0 0 1222.91000000000008185 841.88999999999998636;fill:none;fill-opacity:1;stroke-width:1.333" id="rect980" width="76" height="76" x="30.845" y="115.064" ry="0"/><path id="path16" d="M36.66,153.06c0-5.93,0.01-11.86-0.01-17.79c0-0.59,0.17-0.91,0.69-1.22c9.45-5.43,18.88-10.88,28.32-16.33 c0.88-0.51,1.77-1.01,2.63-1.54c0.41-0.26,0.73-0.23,1.14,0.01c3.55,2.07,7.11,4.13,10.67,6.19c5.38,3.11,10.77,6.22,16.15,9.32 c1.44,0.83,2.86,1.68,4.32,2.48c0.44,0.24,0.46,0.58,0.45,0.99c-0.02,4.44-0.04,8.88-0.04,13.32c0,7.32,0.01,14.63,0.06,21.95 c0.01,0.94-0.27,1.42-1.1,1.89c-4.94,2.79-9.83,5.66-14.75,8.49c-4.72,2.72-9.44,5.43-14.16,8.14c-0.75,0.43-1.5,1.17-2.25,1.17 c-0.72,0-1.45-0.76-2.18-1.18c-8.2-4.72-16.4-9.44-24.59-14.16c-1.61-0.93-3.23-1.84-4.81-2.81c-0.26-0.16-0.51-0.56-0.51-0.85 c-0.02-4.88-0.01-9.77,0-14.65c0-1.14,0-2.28,0-3.42C36.67,153.06,36.67,153.06,36.66,153.06z M96.84,156.27c0-0.52,0-0.79,0-1.06 c-0.01-5.73-0.02-11.45-0.03-17.18c0-0.2,0.05-0.42-0.01-0.59c-0.1-0.27-0.22-0.61-0.44-0.74c-4.66-2.72-9.34-5.41-14.02-8.11 c-4.22-2.44-8.45-4.87-12.65-7.34c-0.65-0.38-1.13-0.34-1.75,0.02c-2.43,1.44-4.87,2.85-7.31,4.26 c-6.43,3.71-12.87,7.42-19.29,11.15c-0.24,0.14-0.46,0.52-0.46,0.79c-0.03,6.74-0.04,13.49-0.05,20.23c0,0.21,0.04,0.41,0.07,0.7 c0.18-0.13,0.29-0.18,0.38-0.26c1.58-1.42,3.13-2.86,4.72-4.27c0.13-0.12,0.26-0.23,0.42-0.37c0.57-0.5,1.01-0.88,1.22-1.06 c2.31-1.97,3.81-3.16,5.67-4.99c0.28-0.27,0.73-0.72,1.28-1.31c0.51,0.55,5.6,4.77,5.6,4.77s15.4-11.57,15.95-12.11 c0.58,0.55,1.52,1.44,2.69,2.51c5.43,4.97,10.11,8.71,14.23,11.99C93.94,154,95.25,155.03,96.84,156.27z"/></g></g><g id="g970" transform="translate(-2.4412537)"><g id="g30"><path id="path20" d="m 314.91,146.14 v 17.82 h 15.58 v 5.94 H 310.9 v -29.7 h 19.59 v 5.94 z" class="st0"/><path id="path22" d="m 354.39,140.03 v 18.11 h -5.13 l 5.13,7.54 v 4.23 h -2.92 l -7.72,-11.77 h -5.09 v 11.77 h -3.86 v -29.88 h 19.59 z m -4.01,6.11 h -11.72 v 5.88 h 11.72 z" class="st0"/><path id="path24" d="m 377.95,169.9 h -19.59 v -29.93 h 19.59 z m -3.86,-23.99 h -11.72 v 17.88 h 11.72 z" class="st0"/><path id="path26" d="m 401.84,140.03 v 29.88 h -2.77 l -7.04,-10.74 -7,10.74 h -2.77 v -29.88 h 4.01 v 19.77 l 5.77,-9.03 5.96,9.03 v -19.77 z" class="st0"/><path id="path28" d="m 425.44,140.03 v 29.88 h -3.86 L 409.86,149.4 v 20.51 H 406 v -29.88 h 3.86 l 11.72,20.51 v -20.51 z" class="st0"/></g><g id="g1037"><rect style="enable-background:new 0 0 1222.91000000000008185 841.88999999999998636;fill:none;fill-opacity:1;stroke-width:1.333" id="rect980-1" width="76" height="76" x="233.744" y="115.064" ry="0" transform="translate(2.4412537)"/><path id="path32" d="m 242,153.06 c 0,-5.93 0.01,-11.86 -0.01,-17.79 0,-0.59 0.17,-0.91 0.69,-1.22 9.45,-5.43 18.88,-10.88 28.32,-16.33 0.88,-0.51 1.77,-1.01 2.63,-1.54 0.41,-0.26 0.73,-0.23 1.14,0.01 3.55,2.07 7.11,4.13 10.67,6.19 5.38,3.11 10.77,6.22 16.15,9.32 1.44,0.83 2.86,1.68 4.32,2.48 0.44,0.24 0.46,0.58 0.45,0.99 -0.02,4.44 -0.04,8.88 -0.04,13.32 0,7.32 0.01,14.63 0.06,21.95 0.01,0.94 -0.27,1.42 -1.1,1.89 -4.94,2.79 -9.83,5.66 -14.75,8.49 -4.72,2.72 -9.44,5.43 -14.16,8.14 -0.75,0.43 -1.5,1.17 -2.25,1.17 -0.72,0 -1.45,-0.76 -2.18,-1.18 -8.2,-4.72 -16.4,-9.44 -24.59,-14.16 -1.61,-0.93 -3.23,-1.84 -4.81,-2.81 -0.26,-0.16 -0.51,-0.56 -0.51,-0.85 -0.02,-4.88 -0.01,-9.77 0,-14.65 0,-1.14 0,-2.28 0,-3.42 -0.01,0 -0.02,0 -0.03,0 z m 60.19,3.21 c 0,-0.52 0,-0.79 0,-1.06 -0.01,-5.73 -0.02,-11.45 -0.03,-17.18 0,-0.2 0.05,-0.42 -0.01,-0.59 -0.1,-0.27 -0.22,-0.61 -0.44,-0.74 -4.66,-2.72 -9.34,-5.41 -14.02,-8.11 -4.22,-2.44 -8.45,-4.87 -12.65,-7.34 -0.65,-0.38 -1.13,-0.34 -1.75,0.02 -2.43,1.44 -4.87,2.85 -7.31,4.26 -6.43,3.71 -12.87,7.42 -19.29,11.15 -0.24,0.14 -0.46,0.52 -0.46,0.79 -0.03,6.74 -0.04,13.49 -0.05,20.23 0,0.21 0.04,0.41 0.07,0.7 0.18,-0.13 0.29,-0.18 0.38,-0.26 1.58,-1.42 3.13,-2.86 4.72,-4.27 0.13,-0.12 0.26,-0.23 0.42,-0.37 0.57,-0.5 1.01,-0.88 1.22,-1.06 2.31,-1.97 3.81,-3.16 5.67,-4.99 0.28,-0.27 0.73,-0.72 1.28,-1.31 0.51,0.55 5.6,4.77 5.6,4.77 0,0 15.4,-11.57 15.95,-12.11 0.58,0.55 1.52,1.44 2.69,2.51 5.43,4.97 10.11,8.71 14.23,11.99 0.88,0.7 2.18,1.73 3.78,2.97 z" class="st0"/></g></g><g id="g942" transform="translate(-8.9775391)"><g id="g44"><path id="path34" d="m 524.35,146.14 v 17.82 h 15.58 v 5.94 h -19.59 v -29.7 h 19.59 v 5.94 z"/><path id="path36" d="m 563.83,140.03 v 18.11 h -5.13 l 5.13,7.54 v 4.23 h -2.92 l -7.72,-11.77 h -5.09 v 11.77 h -3.86 v -29.88 h 19.59 z m -4.01,6.11 H 548.1 v 5.88 h 11.72 z"/><path id="path38" d="m 587.38,169.9 h -19.59 v -29.93 h 19.59 z m -3.85,-23.99 H 571.8 v 17.88 h 11.72 v -17.88 z"/><path id="path40" d="m 611.28,140.03 v 29.88 h -2.77 l -7.04,-10.74 -7,10.74 h -2.77 v -29.88 h 4.01 v 19.77 l 5.77,-9.03 5.96,9.03 v -19.77 z"/><path id="path42" d="m 634.88,140.03 v 29.88 h -3.86 L 619.3,149.4 v 20.51 h -3.86 v -29.88 h 3.86 l 11.72,20.51 v -20.51 z"/></g><g id="g1042"><rect style="enable-background:new 0 0 1222.91000000000008185 841.88999999999998636;fill:none;fill-opacity:1;stroke-width:1.333" id="rect980-5" width="76" height="76" x="436.648" y="115.064" ry="0" transform="translate(8.9775391)"/><path id="path46" d="m 451.44,153.06 c 0,-5.93 0.01,-11.86 -0.01,-17.79 0,-0.59 0.17,-0.91 0.69,-1.22 9.45,-5.43 18.88,-10.88 28.32,-16.33 0.88,-0.51 1.77,-1.01 2.63,-1.54 0.41,-0.26 0.73,-0.23 1.14,0.01 3.55,2.07 7.11,4.13 10.67,6.19 5.38,3.11 10.77,6.22 16.15,9.32 1.44,0.83 2.86,1.68 4.32,2.48 0.44,0.24 0.46,0.58 0.45,0.99 -0.02,4.44 -0.04,8.88 -0.04,13.32 0,7.32 0.01,14.63 0.06,21.95 0.01,0.94 -0.27,1.42 -1.1,1.89 -4.94,2.79 -9.83,5.66 -14.75,8.49 -4.72,2.72 -9.44,5.43 -14.16,8.14 -0.75,0.43 -1.5,1.17 -2.25,1.17 -0.72,0 -1.45,-0.76 -2.18,-1.18 -8.2,-4.72 -16.4,-9.44 -24.59,-14.16 -1.61,-0.93 -3.23,-1.84 -4.81,-2.81 -0.26,-0.16 -0.51,-0.56 -0.51,-0.85 -0.02,-4.88 -0.01,-9.77 0,-14.65 0,-1.14 0,-2.28 0,-3.42 -0.01,0 -0.02,0 -0.03,0 z m 60.19,3.21 c 0,-0.52 0,-0.79 0,-1.06 -0.01,-5.73 -0.02,-11.45 -0.03,-17.18 0,-0.2 0.05,-0.42 -0.01,-0.59 -0.1,-0.27 -0.22,-0.61 -0.44,-0.74 -4.66,-2.72 -9.34,-5.41 -14.02,-8.11 -4.22,-2.44 -8.45,-4.87 -12.65,-7.34 -0.65,-0.38 -1.13,-0.34 -1.75,0.02 -2.43,1.44 -4.87,2.85 -7.31,4.26 -6.43,3.71 -12.87,7.42 -19.29,11.15 -0.24,0.14 -0.46,0.52 -0.46,0.79 -0.03,6.74 -0.04,13.49 -0.05,20.23 0,0.21 0.04,0.41 0.07,0.7 0.18,-0.13 0.29,-0.18 0.38,-0.26 1.58,-1.42 3.13,-2.86 4.72,-4.27 0.13,-0.12 0.26,-0.23 0.42,-0.37 0.57,-0.5 1.01,-0.88 1.22,-1.06 2.31,-1.97 3.81,-3.16 5.67,-4.99 0.28,-0.27 0.73,-0.72 1.28,-1.31 0.51,0.55 5.6,4.77 5.6,4.77 0,0 15.4,-11.57 15.95,-12.11 0.58,0.55 1.52,1.44 2.69,2.51 5.43,4.97 10.11,8.71 14.23,11.99 0.88,0.7 2.18,1.73 3.78,2.97 z" class="st3"/></g></g><g id="g951" transform="translate(-2.7937622)"><g id="g58"><path id="path48" d="m 721.07,146.14 v 17.82 h 15.58 v 5.94 h -19.59 v -29.7 h 19.59 v 5.94 z"/><path id="path50" d="m 760.55,140.03 v 18.11 h -5.13 l 5.13,7.54 v 4.23 h -2.92 l -7.72,-11.77 h -5.09 v 11.77 h -3.86 v -29.88 h 19.59 z m -4.01,6.11 h -11.72 v 5.88 h 11.72 z"/><path id="path52" d="m 784.11,169.9 h -19.59 v -29.93 h 19.59 z m -3.86,-23.99 h -11.72 v 17.88 h 11.72 z"/><path id="path54" d="m 808,140.03 v 29.88 h -2.77 l -7.04,-10.74 -7,10.74 h -2.77 v -29.88 h 4.01 v 19.77 l 5.77,-9.03 5.96,9.03 v -19.77 z"/><path id="path56" d="m 831.6,140.03 v 29.88 h -3.86 L 816.02,149.4 v 20.51 h -3.86 v -29.88 h 3.86 l 11.72,20.51 v -20.51 z"/></g><g id="g1047"><rect style="enable-background:new 0 0 1222.91000000000008185 841.88999999999998636;fill:none;fill-opacity:1;stroke-width:1.333" id="rect980-54" width="76" height="76" x="639.551" y="115.064" ry="0" transform="translate(2.7937622)"/><path id="path60" d="m 648.16,153.06 c 0,-5.93 0.01,-11.86 -0.01,-17.79 0,-0.59 0.17,-0.91 0.69,-1.22 9.45,-5.43 18.88,-10.88 28.32,-16.33 0.88,-0.51 1.77,-1.01 2.63,-1.54 0.41,-0.26 0.73,-0.23 1.14,0.01 3.55,2.07 7.11,4.13 10.67,6.19 5.38,3.11 10.77,6.22 16.15,9.32 1.44,0.83 2.86,1.68 4.32,2.48 0.44,0.24 0.46,0.58 0.45,0.99 -0.02,4.44 -0.04,8.88 -0.04,13.32 0,7.32 0.01,14.63 0.06,21.95 0.01,0.94 -0.27,1.42 -1.1,1.89 -4.94,2.79 -9.83,5.66 -14.75,8.49 -4.72,2.72 -9.44,5.43 -14.16,8.14 -0.75,0.43 -1.5,1.17 -2.25,1.17 -0.72,0 -1.45,-0.76 -2.18,-1.18 -8.2,-4.72 -16.4,-9.44 -24.59,-14.16 -1.61,-0.93 -3.23,-1.84 -4.81,-2.81 -0.26,-0.16 -0.51,-0.56 -0.51,-0.85 -0.02,-4.88 -0.01,-9.77 0,-14.65 0,-1.14 0,-2.28 0,-3.42 -0.01,0 -0.02,0 -0.03,0 z m 60.19,3.21 c 0,-0.52 0,-0.79 0,-1.06 -0.01,-5.73 -0.02,-11.45 -0.03,-17.18 0,-0.2 0.05,-0.42 -0.01,-0.59 -0.1,-0.27 -0.22,-0.61 -0.44,-0.74 -4.66,-2.72 -9.34,-5.41 -14.02,-8.11 -4.22,-2.44 -8.45,-4.87 -12.65,-7.34 -0.65,-0.38 -1.13,-0.34 -1.75,0.02 -2.43,1.44 -4.87,2.85 -7.31,4.26 -6.43,3.71 -12.87,7.42 -19.29,11.15 -0.24,0.14 -0.46,0.52 -0.46,0.79 -0.03,6.74 -0.04,13.49 -0.05,20.23 0,0.21 0.04,0.41 0.07,0.7 0.18,-0.13 0.29,-0.18 0.38,-0.26 1.58,-1.42 3.13,-2.86 4.72,-4.27 0.13,-0.12 0.26,-0.23 0.42,-0.37 0.57,-0.5 1.01,-0.88 1.22,-1.06 2.31,-1.97 3.81,-3.16 5.67,-4.99 0.28,-0.27 0.73,-0.72 1.28,-1.31 0.51,0.55 5.6,4.77 5.6,4.77 0,0 15.4,-11.57 15.95,-12.11 0.58,0.55 1.52,1.44 2.69,2.51 5.43,4.97 10.11,8.71 14.23,11.99 0.88,0.7 2.18,1.73 3.78,2.97 z" class="st4"/></g></g></svg>